<?xml version="1.0" encoding="utf-8"?>
<!-- Generator: Adobe Illustrator 14.0.0, SVG Export Plug-In . SVG Version: 6.00 Build 43363)  -->
<!DOCTYPE svg PUBLIC "-//W3C//DTD SVG 1.1//EN" "http://www.w3.org/Graphics/SVG/1.1/DTD/svg11.dtd">
<svg version="1.1" id="Layer_1" xmlns="http://www.w3.org/2000/svg" xmlns:xlink="http://www.w3.org/1999/xlink" x="0px" y="0px"
	 width="612px" height="792px" viewBox="0 0 612 792" enable-background="new 0 0 612 792" xml:space="preserve">
<g>
	<polygon fill-rule="evenodd" clip-rule="evenodd" fill="#FFFFFF" points="209,300 401.756,300 401.756,492.756 209,492.756 
		209,300 	"/>
	<path fill-rule="evenodd" clip-rule="evenodd" d="M393.252,405.043c0-1.082-0.892-1.955-1.974-1.955s-1.975,0.873-1.975,1.955
		c0,1.1,0.893,1.973,1.975,1.973S393.252,406.143,393.252,405.043L393.252,405.043z"/>
	<path fill-rule="evenodd" clip-rule="evenodd" fill="#FFFFFF" d="M393.024,405.043c0,0.967-0.778,1.746-1.746,1.746
		c-0.969,0-1.746-0.779-1.746-1.729c0-0.967,0.777-1.746,1.746-1.746C392.246,403.314,393.024,404.094,393.024,405.043
		L393.024,405.043z"/>
	<path fill-rule="evenodd" clip-rule="evenodd" d="M390.537,406.068h0.285v-0.932h0.722c0.437,0,0.322,0.398,0.36,0.666l0.038,0.266
		h0.342c-0.114-0.191-0.076-0.229-0.095-0.514c-0.038-0.379-0.058-0.418-0.266-0.551c0.208-0.17,0.284-0.266,0.284-0.549
		c-0.038-0.494-0.36-0.551-0.702-0.551h-0.969V406.068L390.537,406.068z"/>
	<path fill-rule="evenodd" clip-rule="evenodd" d="M346.406,402.859h21.563c31.965,0,31.965,21.051,0,21.051h-21.563V402.859
		L346.406,402.859z"/>
	<path fill-rule="evenodd" clip-rule="evenodd" d="M295.251,424.119c9.149,0,16.647-4.896,16.647-10.877
		c0-5.998-7.498-10.875-16.647-10.875c-9.187,0-16.666,4.877-16.666,10.875C278.586,419.223,286.064,424.119,295.251,424.119
		L295.251,424.119z"/>
	<path fill-rule="evenodd" clip-rule="evenodd" d="M228.608,423.91h-11.104v-21.051h10.193c0,0,8.409-0.227,8.409,5.354
		c0,0,0.341,3.834-2.98,4.953c0,0,4.138,1.102,4.138,5.012S233.41,423.91,228.608,423.91L228.608,423.91z"/>
	<path fill-rule="evenodd" clip-rule="evenodd" d="M391.126,387.542l1.196,0.684c0,0-1.534,2.173-3.938,4.51
		c2.518,3.352,4.563,6.081,4.563,6.081h-2.068l-3.688-4.975c-0.411,0.361-0.84,0.719-1.285,1.065
		c-3.759,2.904-6.662,4.537-9.377,4.537c-2.733,0-7.688-2.24-7.688-7.308c0-5.068,3.397-7.46,6.701-9.662
		c0.801-0.539,1.521-1.002,2.172-1.415c0,0-3.046-3.482-3.046-6.557c0-3.094,2.695-5.562,5.694-5.562c3.019,0,5.22,2.791,5.22,5.657
		c0,2.705-2.618,4.859-5.604,6.979c1.458,1.917,4.578,6.063,7.392,9.81C388.555,390.28,389.806,389.004,391.126,387.542
		L391.126,387.542z"/>
	<polygon fill-rule="evenodd" clip-rule="evenodd" points="301.515,398.816 313.645,368.637 325.83,398.816 323.951,398.816 
		320.022,389.099 307.323,389.099 303.433,398.816 301.515,398.816 	"/>
	<path fill-rule="evenodd" clip-rule="evenodd" d="M253.645,369.624h6.625c18.678,0,19.095,29.193-0.437,29.193h-6.188V369.624
		L253.645,369.624z"/>
	<path fill-rule="evenodd" clip-rule="evenodd" d="M293.505,398.816h-7.346v-29.193h6.644c0,0,7.137,0,7.441,7.099
		c0,0,0.417,4.65-3.227,6.625c0,0,5.79,1.177,5.79,7.308C302.806,396.842,297.89,398.816,293.505,398.816L293.505,398.816z"/>
	<path fill-rule="evenodd" clip-rule="evenodd" d="M225.097,398.816h-7.346v-29.193h6.662c0,0,7.137,0,7.422,7.099
		c0,0,0.437,4.65-3.227,6.625c0,0,5.827,1.177,5.827,7.308C234.436,396.842,229.481,398.816,225.097,398.816L225.097,398.816z"/>
	<path fill-rule="evenodd" clip-rule="evenodd" fill="#FFFFFF" d="M391.525,404.15c0.17,0,0.436,0.037,0.398,0.418
		c-0.038,0.285-0.209,0.322-0.398,0.322h-0.703v-0.74H391.525L391.525,404.15z"/>
	<path fill-rule="evenodd" clip-rule="evenodd" fill="#FFFFFF" d="M363.356,417.531h2.259c12.262,0,12.262-8.123,0-8.123h-2.259
		V417.531L363.356,417.531z"/>
	<path fill-rule="evenodd" clip-rule="evenodd" d="M312.259,402.859h11.332l10.041,11.18c0.551,0.59,1.12,0.438,0.74-0.455
		c-0.38-0.91-0.664-2.809-0.664-2.809v-7.916h11.123v21.051H333.67l-10.137-10.744c-0.55-0.607-1.119-0.455-0.74,0.457
		c0.361,0.891,0.551,2.809,0.551,2.809v7.479h-11.085V402.859L312.259,402.859z"/>
	<path fill-rule="evenodd" clip-rule="evenodd" fill="#FFFFFF" d="M295.251,409.086c3.132,0,5.676,1.859,5.676,4.156
		c0,2.277-2.543,4.158-5.676,4.158c-3.132,0-5.694-1.881-5.694-4.158C289.557,410.945,292.12,409.086,295.251,409.086
		L295.251,409.086z"/>
	<polygon fill-rule="evenodd" clip-rule="evenodd" points="238.592,402.859 266.362,402.859 269.646,408.82 272.778,402.859 
		284.337,402.859 274.543,414.951 274.543,423.91 264.616,423.91 264.616,414.646 255.429,403.676 255.429,408.572 247.703,408.572 
		247.703,410.643 254.802,410.643 254.802,416.051 247.703,416.051 247.703,418.197 255.808,418.197 255.808,423.91 238.592,423.91 
		238.592,402.859 	"/>
	<path fill-rule="evenodd" clip-rule="evenodd" fill="#FFFFFF" d="M225.191,411.098h1.993c2.126,0,2.126-3.189,0-3.189h-1.993
		V411.098L225.191,411.098z"/>
	<path fill-rule="evenodd" clip-rule="evenodd" fill="#FFFFFF" d="M225.191,415.482h2.278c2.98,0,2.98,3.473,0,3.473h-2.278V415.482
		L225.191,415.482z"/>
	<path fill-rule="evenodd" clip-rule="evenodd" fill="#FFFFFF" d="M386.172,392.467l-7.432-10.024
		c-2.686,1.866-3.468,2.347-4.792,3.353c-1.404,1.101-3.379,2.733-3.379,5.847c0,3.113,2.468,5.922,5.694,5.922
		C378.636,397.564,381.931,396.159,386.172,392.467L386.172,392.467z"/>
	<path fill-rule="evenodd" clip-rule="evenodd" fill="#FFFFFF" d="M378.984,380.255c1.354-0.86,2.35-1.536,3.163-2.394
		c1.367-1.442,1.595-2.354,1.595-3.265c0-0.892-0.588-3.796-3.587-3.796c-3.019,0-3.702,2.676-3.702,4.024
		C376.453,376.042,377.219,377.819,378.984,380.255L378.984,380.255z"/>
	<polygon fill-rule="evenodd" clip-rule="evenodd" points="340.427,381.923 358.231,381.923 358.231,369.624 359.921,369.624 
		359.921,398.816 358.231,398.816 358.231,383.746 340.427,383.746 340.427,398.816 338.737,398.816 338.737,369.624 
		340.427,369.624 340.427,381.923 	"/>
	<polygon fill-rule="evenodd" clip-rule="evenodd" points="320.079,369.624 336.896,369.624 336.896,371.275 329.323,371.275 
		329.323,398.816 327.634,398.816 327.634,371.275 320.079,371.275 320.079,369.624 	"/>
	<polygon fill-rule="evenodd" clip-rule="evenodd" fill="#FFFFFF" points="319.339,387.409 313.645,373.268 307.988,387.409 
		319.339,387.409 	"/>
	<path fill-rule="evenodd" clip-rule="evenodd" fill="#FFFFFF" d="M255.6,371.446h4.404c16.722,0,16.476,25.492,0,25.492H255.6
		V371.446L255.6,371.446z"/>
	<polygon fill-rule="evenodd" clip-rule="evenodd" points="236.694,369.624 250.607,369.624 250.607,371.446 238.479,371.446 
		238.479,382.056 250.266,382.056 250.266,383.746 238.479,383.746 238.479,397.014 250.607,397.014 250.607,398.816 
		236.694,398.816 236.694,369.624 	"/>
	<path fill-rule="evenodd" clip-rule="evenodd" fill="#FFFFFF" d="M287.792,371.408h4.897c7.707,0,7.726,11.484,0,11.484h-4.897
		V371.408L287.792,371.408z"/>
	<path fill-rule="evenodd" clip-rule="evenodd" fill="#FFFFFF" d="M219.383,371.408h4.897c7.707,0,7.726,11.484,0,11.484h-4.897
		V371.408L219.383,371.408z"/>
	<path fill-rule="evenodd" clip-rule="evenodd" fill="#FFFFFF" d="M287.83,384.771h6.51c9.149,0,8.902,12.223-0.247,12.223h-6.264
		V384.771L287.83,384.771z"/>
	<path fill-rule="evenodd" clip-rule="evenodd" fill="#FFFFFF" d="M219.44,384.771h6.492c9.168,0,8.921,12.223-0.247,12.223h-6.245
		V384.771L219.44,384.771z"/>
</g>
</svg>
