<svg id="svg" version="1.1" width="400" height="408" xmlns="http://www.w3.org/2000/svg" xmlns:xlink="http://www.w3.org/1999/xlink" style="display: block;"><g id="svgg"><path id="path0" d="M23.500 12.665 C 21.850 13.533,19.445 15.201,18.155 16.372 C 12.673 21.347,13.000 9.436,13.004 204.200 C 13.008 407.340,12.203 387.240,20.587 393.634 L 24.344 396.500 198.922 396.773 C 396.040 397.082,379.287 397.766,385.262 389.163 L 388.500 384.500 388.763 205.717 L 389.027 26.933 386.862 21.900 C 385.111 17.830,383.721 16.308,379.598 13.946 L 374.500 11.025 200.500 11.056 C 43.964 11.083,26.199 11.245,23.500 12.665 M212.500 51.023 C 215.800 51.579,220.062 52.295,221.972 52.614 C 240.757 55.753,266.486 73.616,278.006 91.517 C 285.876 103.746,286.692 105.773,284.417 107.440 C 278.579 111.717,260.349 120.156,253.829 121.600 C 231.888 126.459,220.998 125.309,196.000 115.494 C 152.313 98.342,140.321 97.156,115.568 107.543 C 113.134 108.564,120.132 95.143,126.018 87.500 C 139.454 70.054,162.297 55.357,180.546 52.417 C 182.721 52.067,186.525 51.432,189.000 51.008 C 195.639 49.868,205.686 49.875,212.500 51.023 M153.500 114.520 C 156.800 115.517,159.950 116.426,160.500 116.541 C 161.050 116.656,166.675 118.870,173.000 121.462 C 179.325 124.053,186.750 127.068,189.500 128.162 C 197.563 131.370,212.290 135.905,216.556 136.494 C 218.725 136.793,221.975 137.277,223.778 137.570 C 235.680 139.500,267.445 129.204,284.294 117.954 C 289.554 114.442,289.654 114.443,290.383 118.023 C 293.256 132.111,294.000 136.944,294.000 141.511 L 294.000 146.846 287.170 151.387 C 254.930 172.820,222.231 175.484,190.558 159.258 C 188.941 158.429,186.466 157.397,185.058 156.965 C 183.651 156.532,178.687 154.777,174.027 153.064 C 169.366 151.351,164.191 149.711,162.527 149.420 C 160.862 149.129,157.700 148.476,155.500 147.970 C 142.503 144.978,123.111 148.510,111.295 156.023 C 108.031 158.098,107.711 157.106,107.656 144.770 C 107.587 129.259,109.475 120.323,113.232 118.380 C 124.657 112.472,141.404 110.866,153.500 114.520 M148.685 159.449 C 155.289 160.853,167.305 164.902,175.500 168.484 C 206.081 181.854,223.856 185.798,239.033 182.580 C 254.136 179.378,274.375 170.838,286.451 162.570 L 292.647 158.328 290.938 165.414 C 286.511 183.773,278.377 197.400,269.992 200.508 C 239.791 211.703,225.032 210.943,182.500 196.005 C 159.288 187.853,138.614 185.608,126.210 189.892 C 120.945 191.711,120.915 191.710,119.748 189.610 C 116.159 183.152,109.335 166.198,110.116 165.680 C 118.511 160.100,137.396 157.049,148.685 159.449 M150.048 199.510 C 156.400 200.846,163.359 203.114,190.500 212.692 C 213.805 220.917,231.623 222.254,249.826 217.144 C 255.422 215.573,260.000 214.425,260.000 214.593 C 260.000 215.671,245.913 224.632,239.724 227.492 C 207.980 242.159,170.340 237.738,143.193 216.153 C 134.312 209.092,126.262 200.194,128.171 199.548 C 133.456 197.759,141.656 197.745,150.048 199.510 M368.027 234.646 C 374.083 238.678,374.949 245.204,370.077 250.077 C 363.976 256.178,352.847 252.080,353.103 243.827 L 353.207 240.500 354.183 244.167 C 356.946 254.544,372.000 253.811,372.000 243.299 C 372.000 234.919,359.754 230.986,355.927 238.137 C 355.378 239.162,354.492 240.000,353.956 240.000 C 352.405 240.000,355.036 236.445,357.904 234.665 C 361.254 232.585,364.922 232.578,368.027 234.646 M366.418 237.607 C 368.240 238.306,368.508 241.092,366.907 242.693 C 366.117 243.483,366.117 244.350,366.907 245.827 C 368.219 248.278,368.277 249.000,367.161 249.000 C 366.699 249.000,365.808 247.875,365.182 246.500 C 364.555 245.125,363.358 244.000,362.521 244.000 C 361.565 244.000,361.000 244.929,361.000 246.500 C 361.000 247.875,360.550 249.000,360.000 249.000 C 359.444 249.000,359.000 246.333,359.000 243.000 C 359.000 236.680,360.728 235.424,366.418 237.607 M361.000 239.883 C 361.000 242.271,364.887 243.459,365.707 241.321 C 366.303 239.767,364.501 238.043,362.250 238.015 C 361.563 238.007,361.000 238.848,361.000 239.883 M253.112 244.750 C 254.843 246.882,254.886 249.228,253.229 251.225 C 251.793 252.954,247.643 252.480,245.908 250.389 C 241.926 245.592,239.769 249.794,240.203 261.503 L 240.500 269.500 244.812 269.811 C 250.880 270.248,250.415 273.360,244.215 273.809 L 239.947 274.118 240.224 288.809 L 240.500 303.500 243.728 305.000 C 249.497 307.680,247.587 308.560,236.000 308.560 C 224.748 308.560,222.258 307.570,227.500 305.182 L 230.000 304.043 230.000 289.088 L 230.000 274.133 227.259 273.816 C 223.169 273.344,222.878 270.000,226.927 270.000 C 229.777 270.000,230.000 269.744,230.000 266.475 C 230.000 251.883,246.390 236.476,253.112 244.750 M82.000 249.042 C 94.627 251.037,97.000 253.614,97.000 265.332 C 97.000 266.823,93.092 265.874,92.541 264.250 C 89.414 255.032,75.640 250.255,65.487 254.867 C 51.296 261.314,48.556 286.142,60.660 298.608 C 70.475 308.715,87.187 307.664,93.073 296.569 C 97.211 288.768,99.636 290.590,97.324 299.766 L 95.773 305.924 90.136 307.630 C 78.945 311.019,62.400 309.474,54.215 304.276 C 30.819 289.420,39.267 254.366,67.500 249.148 C 74.352 247.881,74.641 247.879,82.000 249.042 M350.000 264.000 L 350.000 270.000 356.573 270.000 C 366.076 270.000,365.783 273.342,356.240 273.798 L 350.000 274.095 350.000 285.501 C 350.000 301.297,352.359 305.165,360.051 301.979 C 366.390 299.353,364.128 305.130,357.669 308.063 C 352.821 310.264,351.793 310.348,346.762 308.951 C 341.463 307.479,340.884 305.649,340.681 289.717 C 340.507 276.090,340.415 275.519,338.232 274.429 C 336.985 273.807,335.695 273.028,335.365 272.698 C 334.707 272.041,347.934 258.000,349.210 258.000 C 349.645 258.000,350.000 260.700,350.000 264.000 M130.692 269.501 C 155.101 276.750,144.558 315.613,119.978 308.994 C 100.930 303.865,100.321 275.364,119.134 269.496 C 124.772 267.737,124.751 267.737,130.692 269.501 M165.190 271.655 L 165.500 275.310 168.527 272.754 C 175.106 267.197,184.323 267.339,188.329 273.059 L 189.918 275.329 193.796 272.641 C 208.250 262.624,215.386 268.113,215.716 289.500 C 215.834 297.200,215.947 303.789,215.966 304.142 C 215.984 304.494,217.125 305.066,218.500 305.411 C 224.949 307.029,220.962 308.657,210.822 308.545 C 200.725 308.433,196.584 306.895,202.429 305.428 L 205.000 304.783 205.000 291.052 L 205.000 277.321 202.453 276.161 C 198.890 274.537,196.991 274.708,193.250 276.989 L 190.000 278.971 190.014 289.735 C 190.030 302.274,190.496 304.635,193.092 305.314 C 198.855 306.821,194.650 308.511,185.000 308.565 C 174.691 308.624,172.306 307.548,177.500 305.182 C 181.154 303.517,181.410 280.392,177.811 277.039 C 175.061 274.477,172.393 274.463,168.250 276.989 L 165.000 278.971 165.000 291.507 C 165.000 303.908,165.027 304.055,167.500 305.182 C 172.658 307.532,170.302 308.609,160.000 308.609 C 149.698 308.609,147.342 307.532,152.500 305.182 C 158.023 302.666,155.810 277.869,149.875 275.762 C 148.070 275.121,148.305 274.963,156.500 271.311 C 165.339 267.372,164.824 267.352,165.190 271.655 M279.500 269.088 C 289.470 271.774,295.096 279.517,294.456 289.674 C 293.407 306.327,275.794 315.301,262.887 305.759 C 246.011 293.281,259.420 263.681,279.500 269.088 M315.000 272.500 C 315.000 277.824,315.327 277.954,318.684 273.964 C 323.867 267.803,330.844 266.781,332.482 271.943 C 334.111 277.077,328.923 281.306,324.527 278.426 C 318.533 274.498,314.746 280.680,315.176 293.688 L 315.500 303.500 318.750 304.930 C 324.711 307.554,322.668 308.583,311.500 308.583 C 303.586 308.583,301.000 308.265,301.000 307.292 C 301.000 306.581,301.418 306.000,301.929 306.000 C 305.088 306.000,306.000 302.744,306.000 291.468 C 306.000 279.806,305.946 279.625,301.511 276.554 C 299.648 275.265,299.968 274.956,306.511 271.720 C 315.459 267.294,315.000 267.252,315.000 272.500 M118.994 273.716 C 109.407 280.432,117.809 308.273,128.605 305.563 C 137.351 303.368,136.085 273.951,127.199 272.919 C 122.841 272.412,120.537 272.636,118.994 273.716 M269.489 273.266 C 263.017 276.888,263.656 295.312,270.506 302.575 C 280.273 312.931,289.163 298.097,283.006 281.718 C 280.129 274.065,274.430 270.501,269.489 273.266 M156.055 326.512 C 159.545 327.279,159.923 328.730,156.750 329.180 C 154.515 329.498,154.500 329.613,154.500 347.000 C 154.500 364.189,154.540 364.518,156.750 365.487 C 161.358 367.509,158.974 368.500,149.500 368.500 C 142.567 368.500,140.000 368.162,140.000 367.250 C 140.000 366.563,140.649 366.000,141.443 366.000 C 145.000 366.000,146.000 362.013,146.000 347.825 C 146.000 333.359,145.037 329.000,141.839 329.000 C 140.828 329.000,140.000 328.427,140.000 327.727 C 140.000 326.278,151.148 325.434,156.055 326.512 M180.805 330.948 C 183.172 333.451,189.022 340.109,193.805 345.742 L 202.500 355.984 202.782 344.486 C 203.081 332.288,202.270 329.000,198.965 329.000 C 197.884 329.000,197.000 328.392,197.000 327.650 C 197.000 326.637,198.870 326.300,204.500 326.300 C 210.130 326.300,212.000 326.637,212.000 327.650 C 212.000 328.392,211.089 329.000,209.975 329.000 C 206.685 329.000,206.000 332.977,206.000 352.065 C 206.000 365.753,205.704 369.997,204.750 369.988 C 204.063 369.981,196.750 362.070,188.500 352.409 L 173.500 334.842 173.201 346.671 C 172.817 361.862,173.342 364.797,176.587 365.611 C 181.257 366.783,178.453 368.222,171.500 368.222 C 164.590 368.222,161.735 366.785,166.346 365.628 C 169.670 364.794,170.105 362.346,169.944 345.397 C 169.797 329.877,169.482 329.000,164.066 329.000 C 161.550 329.000,161.327 327.337,163.750 326.651 C 170.314 324.791,176.444 326.336,180.805 330.948 M229.804 327.672 C 230.572 328.902,245.618 346.349,250.744 351.953 L 253.988 355.500 253.744 343.000 C 253.512 331.109,253.390 330.452,251.250 329.513 C 246.808 327.564,248.755 326.211,256.000 326.211 C 263.245 326.211,265.192 327.564,260.750 329.513 C 258.540 330.483,258.495 330.850,258.229 350.250 C 258.011 366.154,257.691 370.000,256.591 370.000 C 255.839 370.000,248.872 362.601,241.109 353.558 C 233.347 344.514,226.546 336.838,225.998 336.499 C 225.352 336.100,225.000 340.777,225.000 349.741 C 225.000 364.118,225.496 366.000,229.283 366.000 C 230.319 366.000,231.002 366.494,230.801 367.097 C 230.260 368.719,215.999 368.866,216.000 367.250 C 216.000 366.563,216.828 366.000,217.839 366.000 C 221.037 366.000,222.000 361.641,222.000 347.175 C 222.000 332.081,221.058 329.000,216.443 329.000 C 215.015 329.000,214.000 328.418,214.000 327.599 C 214.000 325.846,228.707 325.914,229.804 327.672 " stroke="none" fill="#000000" fill-rule="evenodd"></path></g></svg>