<?xml version="1.0" standalone="no"?>
<!DOCTYPE svg PUBLIC "-//W3C//DTD SVG 20010904//EN"
 "http://www.w3.org/TR/2001/REC-SVG-20010904/DTD/svg10.dtd">
<svg version="1.0" xmlns="http://www.w3.org/2000/svg"
 width="300.000000pt" height="306.000000pt" viewBox="0 0 300.000000 306.000000"
 preserveAspectRatio="xMidYMid meet">
<metadata>
Created by potrace 1.10, written by Peter Selinger 2001-2011
</metadata>
<g transform="translate(0.000000,306.000000) scale(0.100000,-0.100000)"
fill="#aaf0d1" stroke="none">
<path d="M158 2954 c-62 -33 -58 55 -58 -1424 0 -1188 2 -1355 15 -1380 33
-64 -56 -60 1390 -60 1446 0 1357 -4 1390 60 13 25 15 192 15 1380 0 1234 -1
1354 -16 1380 -39 64 63 60 -1391 60 -1146 -1 -1322 -3 -1345 -16z m1510 -290
c122 -26 223 -84 328 -188 58 -59 101 -113 122 -153 l33 -62 -63 -35 c-127
-70 -219 -97 -338 -97 -96 0 -139 11 -325 81 -203 78 -274 94 -379 88 -53 -4
-100 -13 -131 -27 -26 -12 -50 -19 -53 -17 -8 8 58 121 102 175 115 140 281
230 464 250 80 9 142 5 240 -15z m-526 -459 c31 -8 125 -42 208 -75 245 -99
348 -117 475 -85 85 22 201 70 279 115 36 21 67 35 70 32 7 -14 25 -109 31
-170 l6 -62 -78 -50 c-98 -63 -212 -108 -315 -123 -105 -15 -200 4 -403 82
-280 109 -394 116 -548 36 -28 -14 -52 -23 -55 -21 -8 9 -7 158 1 219 8 55 11
60 45 74 103 44 191 53 284 28z m-22 -339 c36 -8 137 -43 225 -79 189 -76 276
-100 366 -99 115 0 290 61 423 146 31 20 58 36 61 36 11 0 -41 -154 -73 -215
-33 -62 -44 -73 -91 -96 -77 -38 -193 -63 -286 -62 -88 0 -172 20 -351 83
-215 75 -342 87 -470 46 -18 -5 -25 3 -54 65 -18 38 -33 84 -34 102 -1 28 3
32 49 50 45 17 114 33 155 36 8 0 44 -6 80 -13z m220 -366 c113 -38 233 -74
268 -81 79 -15 196 -7 282 20 35 11 66 19 68 17 7 -8 -100 -78 -160 -105 -100
-46 -181 -63 -293 -63 -149 -1 -280 40 -403 124 -47 32 -152 135 -152 148 0 5
15 11 33 13 76 11 156 -5 357 -73z m1437 -212 c31 -29 30 -72 -2 -103 -48 -49
-125 -17 -125 52 0 66 77 98 127 51z m-879 -60 c34 -34 -7 -79 -47 -52 -39 28
-51 12 -51 -66 l0 -70 35 0 c24 0 35 -5 35 -15 0 -11 -11 -15 -35 -15 l-36 0
3 -112 c3 -106 4 -114 26 -123 12 -5 22 -15 22 -22 0 -9 -22 -13 -80 -13 -64
0 -80 3 -80 15 0 8 7 15 15 15 13 0 15 20 15 120 0 113 -1 120 -20 120 -11 0
-20 7 -20 15 0 8 9 15 20 15 14 0 20 9 25 38 9 56 46 123 80 143 34 22 75 25
93 7z m-1248 -39 c55 -12 67 -25 72 -84 4 -48 -12 -54 -36 -14 -25 42 -73 69
-124 69 -54 0 -93 -20 -129 -66 -38 -50 -45 -150 -15 -216 53 -121 222 -147
278 -42 18 33 44 46 44 22 0 -7 -5 -30 -11 -51 -14 -51 -52 -67 -161 -67 -164
1 -261 81 -261 215 0 175 147 276 343 234z m1980 -109 l0 -40 45 0 c33 0 45
-4 45 -15 0 -11 -12 -15 -45 -15 l-45 0 0 -99 c0 -113 8 -127 65 -117 42 8 45
-4 9 -33 -36 -28 -106 -29 -134 -1 -18 18 -20 33 -20 131 0 102 -2 111 -20
116 -11 3 -20 8 -20 11 0 12 95 102 107 102 8 0 13 -14 13 -40z m-1624 -51
c58 -28 89 -89 79 -157 -5 -37 -16 -56 -50 -89 -40 -41 -45 -43 -100 -43 -55
0 -60 2 -101 44 -41 40 -44 47 -44 96 0 69 30 123 84 150 52 25 79 25 132 -1z
m234 -5 l0 -25 26 20 c50 40 118 36 150 -7 10 -14 15 -13 38 6 56 43 132 37
155 -14 6 -14 11 -70 11 -125 0 -92 2 -101 20 -106 11 -3 20 -12 20 -19 0 -11
-19 -14 -80 -14 -61 0 -80 3 -80 14 0 7 9 16 20 19 18 5 20 14 20 101 0 90 -1
96 -24 112 -22 13 -29 14 -53 2 -28 -13 -28 -15 -31 -111 -3 -93 -1 -99 18
-104 45 -12 11 -28 -63 -31 -61 -2 -77 0 -77 11 0 8 9 17 20 20 18 5 20 14 20
101 0 90 -1 96 -24 112 -22 13 -29 14 -53 2 -28 -13 -28 -15 -31 -111 -3 -93
-1 -99 18 -104 11 -3 19 -11 17 -17 -5 -15 -149 -15 -154 0 -2 6 5 14 17 17
18 5 20 13 20 100 0 87 -2 96 -22 110 -27 17 -28 17 37 44 65 27 65 27 65 -3z
m890 7 c137 -72 86 -291 -67 -291 -106 0 -174 90 -144 190 30 101 126 147 211
101z m240 -12 l0 -31 35 31 c40 35 57 38 79 15 21 -21 20 -37 -4 -59 -17 -15
-24 -16 -46 -6 -22 10 -30 9 -46 -6 -16 -14 -18 -29 -16 -102 3 -81 4 -86 26
-89 13 -2 21 -9 19 -15 -2 -7 -32 -13 -77 -15 -78 -3 -107 8 -71 27 19 11 21
20 21 105 0 86 -2 95 -22 108 -23 15 -22 16 27 40 68 34 75 34 75 -3z m-1173
-413 c3 -3 -3 -9 -13 -13 -31 -11 -34 -23 -34 -138 0 -115 3 -127 34 -138 33
-13 8 -21 -64 -21 -46 -1 -70 3 -70 10 0 7 9 14 20 17 19 5 20 14 20 132 0
118 -1 127 -20 132 -11 3 -20 10 -20 17 0 11 136 14 147 2z m223 -98 c47 -55
88 -102 93 -104 4 -3 7 36 7 86 0 83 -2 92 -20 97 -11 3 -20 10 -20 17 0 7 19
10 55 8 56 -4 72 -15 35 -25 -19 -5 -20 -14 -20 -150 0 -80 -4 -148 -9 -151
-5 -4 -60 52 -122 124 -62 71 -114 130 -116 130 -1 0 -3 -48 -3 -106 0 -97 2
-106 20 -111 41 -11 20 -28 -35 -29 -36 0 -55 4 -55 12 0 6 9 14 20 17 19 5
20 14 20 131 0 104 -3 127 -15 131 -8 3 -22 7 -31 10 -33 10 -3 20 53 16 l58
-3 85 -100z m387 -2 c48 -58 91 -105 96 -105 8 -1 9 134 1 166 -3 11 -16 24
-27 29 -19 6 -18 8 11 11 17 2 47 2 65 0 28 -4 30 -5 10 -12 -30 -10 -36 -45
-32 -184 4 -107 0 -128 -19 -119 -4 2 -49 53 -101 113 -52 61 -100 117 -108
125 -11 12 -13 -3 -13 -94 0 -99 2 -108 20 -113 11 -3 20 -11 20 -17 0 -8 -19
-12 -55 -12 -55 1 -76 18 -35 29 19 5 20 14 20 120 0 64 -3 122 -6 131 -3 9
-17 16 -30 16 -13 0 -24 5 -24 10 0 6 26 10 59 10 l59 0 89 -104z"/>
<path d="M2677 1282 c-35 -39 -6 -112 43 -112 27 0 70 43 70 70 0 50 -79 80
-113 42z m80 -47 c-2 -48 -11 -58 -22 -25 -3 11 -11 20 -16 20 -5 0 -9 -9 -9
-20 0 -11 -4 -20 -10 -20 -5 0 -10 20 -10 45 0 45 0 45 34 45 34 0 34 0 33
-45z"/>
<path d="M2710 1255 c0 -10 7 -15 18 -13 21 4 19 22 -2 26 -10 2 -16 -3 -16
-13z"/>
<path d="M903 1009 c-47 -17 -50 -147 -6 -208 28 -37 76 -41 99 -6 13 20 16
40 11 91 -7 94 -49 144 -104 123z"/>
<path d="M2015 995 c-20 -19 -25 -34 -25 -74 0 -117 71 -191 126 -130 40 45
12 193 -42 218 -33 14 -31 15 -59 -14z"/>
</g>
</svg>
