<?xml version="1.0" standalone="no"?>
<!DOCTYPE svg PUBLIC "-//W3C//DTD SVG 20010904//EN"
 "http://www.w3.org/TR/2001/REC-SVG-20010904/DTD/svg10.dtd">
<svg version="1.0" xmlns="http://www.w3.org/2000/svg"
 width="300.000000pt" height="300.000000pt" viewBox="0 0 300.000000 300.000000"
 preserveAspectRatio="xMidYMid meet">
<metadata>
Created by potrace 1.10, written by Peter Selinger 2001-2011
</metadata>
<g transform="translate(0.000000,300.000000) scale(0.100000,-0.100000)"
fill="#aaf0d1" stroke="none">
<path d="M740 2230 l-735 -218 -3 -510 c-2 -480 -1 -511 15 -516 10 -3 348
-102 751 -220 l732 -216 733 216 c402 118 740 217 750 220 16 5 17 36 15 516
l-3 511 -740 218 c-407 120 -749 218 -760 217 -11 0 -351 -98 -755 -218z
m1470 -68 l705 -208 3 -452 2 -451 -72 -22 c-40 -12 -360 -106 -710 -209
l-638 -188 -637 188 c-351 103 -671 197 -711 209 l-72 22 2 451 3 452 700 207
c385 114 705 207 710 208 6 0 327 -93 715 -207z"/>
<path d="M954 1906 c-46 -20 -98 -88 -140 -182 -41 -91 -46 -94 -126 -75 l-27
6 23 67 c13 37 38 90 55 118 17 27 26 50 21 50 -24 0 -238 -54 -262 -66 -25
-13 -46 -49 -34 -61 3 -3 27 8 53 25 57 36 118 62 145 62 19 0 19 -1 -2 -32
-12 -18 -36 -63 -53 -100 -30 -63 -34 -68 -64 -68 -23 0 -33 -5 -33 -15 0 -9
9 -15 25 -15 33 0 32 -18 -1 -112 -53 -148 -105 -208 -179 -208 -32 0 -51 7
-75 26 -47 40 -60 74 -60 159 0 78 15 130 43 154 20 16 22 51 3 51 -30 0 -64
-41 -76 -91 -24 -100 8 -234 70 -294 31 -30 103 -44 155 -31 65 17 150 125
205 264 l33 82 59 0 c53 0 59 -2 53 -17 -16 -43 -35 -142 -35 -187 0 -30 8
-67 20 -92 34 -70 45 -62 46 35 1 112 46 254 82 259 24 4 31 22 7 22 -19 0
-19 6 4 71 24 72 54 129 86 167 38 45 33 51 -21 28z"/>
<path d="M2012 1823 c-5 -10 -15 -35 -21 -55 -11 -33 -17 -38 -42 -38 -16 0
-29 -4 -29 -10 0 -5 11 -10 25 -10 14 0 25 -3 25 -6 0 -4 -14 -50 -31 -102
-32 -101 -35 -158 -8 -175 23 -14 64 -1 104 34 20 18 37 30 38 28 1 -2 7 -13
13 -24 16 -29 57 -46 93 -39 44 9 86 54 105 111 11 34 25 53 46 65 17 9 30 14
30 9 0 -4 -13 -47 -30 -95 l-29 -87 36 3 c34 3 37 6 53 53 35 101 97 205 123
205 12 0 6 -26 -28 -120 -21 -57 -26 -86 -23 -129 6 -73 37 -101 111 -101 99
0 194 80 233 194 20 58 15 130 -8 134 -16 3 -18 -5 -18 -58 0 -70 -21 -119
-78 -182 -59 -66 -125 -85 -162 -48 -28 28 -25 54 16 181 43 132 42 163 -2
167 -22 2 -40 -5 -63 -23 -30 -26 -31 -26 -31 -6 0 16 -6 21 -29 21 -22 0 -34
-9 -55 -40 -14 -21 -35 -44 -46 -50 -18 -9 -20 -8 -20 15 0 28 -16 66 -34 77
-21 14 -79 8 -110 -12 -37 -22 -70 -76 -86 -143 -12 -45 -64 -107 -91 -107
-17 0 -2 81 30 170 26 70 29 75 59 78 40 4 42 22 3 22 l-29 0 14 47 c8 25 14
50 14 55 0 16 -59 8 -68 -9z m253 -158 c0 -48 -23 -55 -38 -12 -11 35 -2 59
20 55 14 -2 18 -13 18 -43z m-26 -125 c-14 -46 -53 -94 -72 -87 -21 7 -20 102
2 153 l20 45 31 -35 c30 -34 31 -37 19 -76z"/>
<path d="M1024 1730 c-35 -14 -89 -86 -107 -143 -20 -63 -22 -128 -5 -145 20
-20 62 -13 98 17 l35 29 12 -29 c15 -36 57 -39 96 -9 32 25 40 25 32 -1 -6
-18 -3 -20 30 -17 36 3 37 5 61 72 34 98 77 170 103 174 28 4 27 -5 -14 -134
-19 -60 -35 -110 -35 -111 0 -2 15 -3 33 -3 31 0 33 2 69 98 37 95 88 175 104
159 5 -4 -6 -49 -24 -100 -38 -108 -40 -142 -12 -157 26 -14 51 -6 90 27 36
30 38 19 10 -62 -27 -79 -26 -85 13 -85 32 0 34 2 53 62 l20 62 44 -2 c39 -3
49 1 78 29 47 46 71 99 79 169 4 46 2 65 -11 85 -19 29 -35 31 -76 10 -17 -9
-30 -11 -30 -5 0 5 -13 10 -29 10 -28 0 -31 -4 -61 -96 -34 -100 -77 -164
-111 -164 -26 0 -24 17 10 103 40 100 47 140 27 156 -22 19 -58 7 -99 -32
l-35 -33 -6 28 c-3 15 -14 31 -24 37 -18 10 -23 8 -81 -27 -19 -12 -21 -11
-21 13 0 23 -3 26 -32 23 -30 -3 -32 -6 -63 -101 -24 -75 -39 -106 -66 -133
-28 -28 -38 -32 -46 -22 -8 9 -2 43 23 123 19 61 34 116 34 123 0 14 -56 17
-65 2 -4 -7 -12 -7 -25 0 -22 12 -47 12 -76 0z m76 -62 c0 -43 -51 -151 -81
-172 -41 -29 -52 -21 -46 29 16 112 127 238 127 143z m720 -21 c0 -49 -31
-121 -67 -159 -30 -32 -43 -28 -43 12 0 65 76 210 101 194 5 -3 9 -24 9 -47z"/>
<path d="M951 1134 c-1 -60 0 -62 26 -67 43 -8 65 9 61 46 -3 29 -7 32 -40 35
-29 2 -38 8 -41 25 -2 12 -5 -6 -6 -39z m78 -18 c5 -27 -26 -48 -50 -35 -19
10 -25 39 -12 53 14 14 58 1 62 -18z"/>
<path d="M1276 1183 c-3 -3 -6 -30 -6 -60 0 -40 4 -53 15 -53 9 0 15 9 15 25
0 22 4 25 35 25 31 0 35 -3 35 -25 0 -16 6 -25 15 -25 13 0 15 11 13 55 -3 54
-20 76 -26 35 -5 -29 -72 -30 -72 -1 0 21 -13 34 -24 24z"/>
<path d="M1446 1183 c-3 -3 -6 -30 -6 -60 0 -40 4 -53 15 -53 11 0 15 13 15
54 0 51 -9 74 -24 59z"/>
<path d="M1510 1130 l0 -60 53 1 c51 2 51 2 12 8 l-40 6 -3 53 c-4 72 -22 66
-22 -8z"/>
<path d="M1610 1181 c0 -5 10 -11 23 -13 19 -3 22 -10 25 -50 4 -64 22 -62 22
2 0 43 3 50 20 50 11 0 20 5 20 10 0 6 -25 10 -55 10 -30 0 -55 -4 -55 -9z"/>
<path d="M1770 1170 c-23 -23 -26 -58 -6 -85 20 -27 92 -27 112 0 33 44 1 105
-56 105 -17 0 -39 -9 -50 -20z m90 -20 c22 -41 -13 -80 -59 -65 -48 15 -31 85
19 85 19 0 33 -7 40 -20z"/>
<path d="M1930 1130 c0 -33 4 -60 10 -60 6 0 10 19 10 43 l1 42 37 -43 c51
-58 62 -55 62 18 0 33 -4 60 -10 60 -5 0 -10 -21 -10 -47 l0 -48 -41 48 c-22
26 -45 47 -50 47 -5 0 -9 -27 -9 -60z"/>
<path d="M1093 1104 c21 -45 22 -46 3 -60 -18 -13 -18 -14 -2 -14 11 0 25 19
42 56 14 31 22 59 19 62 -3 3 -11 -9 -17 -26 -15 -40 -23 -40 -37 -2 -5 17
-15 30 -20 30 -6 0 -1 -21 12 -46z"/>
<path d="M2940 891 c0 -5 5 -13 10 -16 6 -3 10 -2 10 4 0 5 -4 13 -10 16 -5 3
-10 2 -10 -4z"/>
<path d="M2986 873 c10 -40 14 -41 14 -5 0 18 -5 32 -10 32 -6 0 -8 -11 -4
-27z"/>
<path d="M2964 858 c-4 -7 -3 -8 4 -4 7 4 12 9 12 12 0 8 -9 4 -16 -8z"/>
</g>
</svg>
