<svg id="svg" version="1.1" width="400" height="400" xmlns="http://www.w3.org/2000/svg" xmlns:xlink="http://www.w3.org/1999/xlink" style="display: block;"><g id="svgg"><path id="path0" d="M185.000 77.088 C 177.575 79.255,170.825 81.237,170.000 81.493 C 169.175 81.749,161.525 84.002,153.000 86.500 C 144.475 88.998,136.825 91.249,136.000 91.503 C 135.175 91.756,127.525 94.012,119.000 96.516 C 110.475 99.019,102.825 101.268,102.000 101.513 C 101.175 101.758,93.525 104.002,85.000 106.500 C 76.475 108.998,68.825 111.250,68.000 111.505 C 67.175 111.759,60.335 113.735,52.799 115.894 C 45.264 118.054,38.707 120.063,38.229 120.358 C 37.751 120.654,36.266 121.118,34.930 121.390 C 31.561 122.075,6.113 129.585,2.750 130.886 L 0.000 131.950 0.000 199.891 L 0.000 267.831 9.750 270.870 C 17.731 273.357,43.020 280.833,49.000 282.473 C 49.825 282.699,57.475 284.946,66.000 287.466 C 74.525 289.986,89.044 294.263,98.265 296.971 C 123.663 304.430,147.151 311.340,166.265 316.977 C 175.744 319.773,187.212 323.129,191.750 324.436 L 200.000 326.811 208.250 324.436 C 212.787 323.129,224.256 319.773,233.735 316.977 C 250.747 311.960,268.491 306.739,302.235 296.819 C 336.481 286.753,352.743 281.986,366.500 277.982 C 374.200 275.742,384.887 272.541,390.250 270.870 L 400.000 267.831 400.000 199.891 L 400.000 131.950 397.250 130.885 C 394.196 129.701,368.891 122.264,365.070 121.428 C 363.734 121.135,362.249 120.654,361.771 120.358 C 360.856 119.793,335.248 112.345,331.070 111.428 C 329.734 111.135,328.249 110.654,327.771 110.358 C 327.293 110.063,320.736 108.054,313.201 105.894 C 305.665 103.735,298.825 101.759,298.000 101.505 C 297.175 101.250,289.525 98.998,281.000 96.500 C 272.475 94.002,264.825 91.752,264.000 91.500 C 244.141 85.427,200.626 72.999,199.500 73.078 C 198.950 73.117,192.425 74.921,185.000 77.088 M218.027 89.527 C 226.537 92.017,239.575 95.849,247.000 98.044 C 254.425 100.238,261.175 102.204,262.000 102.413 C 262.825 102.622,265.750 103.498,268.500 104.360 C 274.304 106.180,293.796 111.900,296.000 112.431 C 296.825 112.630,299.750 113.500,302.500 114.364 C 305.250 115.229,313.800 117.763,321.500 119.996 C 329.200 122.229,343.150 126.306,352.500 129.055 C 361.850 131.804,373.775 135.285,379.000 136.791 L 388.500 139.528 388.758 199.734 L 389.016 259.940 383.758 261.460 C 380.866 262.296,373.100 264.542,366.500 266.450 C 359.900 268.359,346.625 272.237,337.000 275.068 C 327.375 277.899,311.850 282.461,302.500 285.206 C 293.150 287.951,277.966 292.415,268.757 295.125 C 259.549 297.835,244.474 302.271,235.257 304.983 C 226.041 307.694,214.337 311.139,209.250 312.638 L 200.000 315.363 190.750 312.638 C 178.275 308.963,151.745 301.158,130.743 294.985 C 100.001 285.949,80.850 280.318,63.000 275.068 C 53.375 272.237,40.100 268.359,33.500 266.450 C 26.900 264.542,19.134 262.296,16.242 261.460 L 10.984 259.940 11.242 199.775 L 11.500 139.609 18.000 137.766 C 21.575 136.752,26.750 135.218,29.500 134.357 C 32.250 133.497,35.175 132.622,36.000 132.413 C 36.825 132.204,43.575 130.234,51.000 128.034 C 69.438 122.571,95.656 114.882,112.500 109.996 C 120.200 107.763,128.750 105.229,131.500 104.364 C 134.250 103.500,137.175 102.622,138.000 102.413 C 139.536 102.025,154.890 97.500,181.500 89.593 C 200.136 84.056,199.334 84.058,218.027 89.527 M126.557 146.047 C 119.034 149.800,113.126 157.988,106.886 173.309 C 104.590 178.947,103.314 180.951,102.274 180.552 C 101.483 180.248,97.993 180.000,94.518 180.000 L 88.199 180.000 90.613 172.865 C 93.041 165.687,97.761 155.901,101.307 150.692 C 103.978 146.769,103.641 146.728,91.934 149.556 C 66.441 155.715,63.561 156.927,61.666 162.288 C 60.490 165.615,63.591 165.124,70.579 160.878 C 77.285 156.804,86.392 153.000,89.441 153.000 C 90.465 153.000,89.397 155.394,86.034 160.645 C 83.340 164.849,80.150 170.924,78.946 174.145 L 76.756 180.000 72.309 180.000 C 66.498 180.000,66.045 184.264,71.796 184.817 C 74.488 185.076,74.985 185.473,74.504 186.987 C 74.181 188.006,73.721 189.850,73.484 191.085 C 69.969 209.334,57.519 227.000,48.172 227.000 C 35.996 227.000,28.262 215.386,29.320 198.692 C 29.892 189.657,29.798 189.906,36.985 178.440 C 39.342 174.681,37.069 173.120,32.448 175.323 C 24.078 179.315,21.164 197.875,26.522 213.062 C 38.368 246.639,75.102 230.887,85.551 187.750 C 86.149 185.281,102.000 183.044,102.000 185.428 C 102.000 185.663,100.925 189.871,99.612 194.778 C 95.283 210.953,97.136 225.520,104.067 229.819 C 106.897 231.574,107.145 231.108,105.857 226.444 C 103.071 216.354,111.522 185.638,117.312 184.810 C 120.175 184.401,120.905 181.000,118.131 181.000 C 115.771 181.000,115.831 180.403,119.190 170.484 C 121.902 162.476,127.680 151.776,131.443 147.794 C 135.636 143.356,133.489 142.588,126.557 146.047 M270.916 154.700 C 268.705 155.043,268.003 156.104,266.053 162.050 L 263.775 169.000 259.814 169.000 C 256.576 169.000,255.917 169.319,256.202 170.750 C 256.444 171.966,257.496 172.499,259.653 172.498 L 262.755 172.495 261.484 176.498 C 260.784 178.699,259.293 183.281,258.170 186.679 C 250.353 210.337,257.147 218.787,272.411 204.390 C 274.480 202.438,276.269 200.989,276.384 201.170 C 276.500 201.352,277.127 202.739,277.777 204.252 C 281.645 213.257,295.573 212.338,301.086 202.714 C 304.136 197.389,306.931 190.265,306.241 189.574 C 305.951 189.284,306.566 188.738,307.607 188.361 C 308.648 187.983,310.738 186.817,312.250 185.769 C 313.762 184.721,315.000 184.011,315.000 184.191 C 315.000 184.371,313.200 190.079,311.000 196.876 C 308.800 203.673,307.000 209.431,307.000 209.672 C 307.000 209.913,309.099 209.972,311.665 209.805 L 316.330 209.500 319.606 200.158 C 324.658 185.749,333.139 172.806,335.790 175.457 C 336.131 175.798,335.824 177.522,335.108 179.288 C 323.847 207.075,325.821 220.494,341.353 221.740 C 359.852 223.225,382.221 195.861,375.963 179.402 C 373.866 173.887,371.000 176.397,370.999 183.750 C 370.997 202.480,353.428 221.933,340.848 217.135 C 334.931 214.879,335.176 207.852,341.797 190.000 C 348.888 170.879,344.707 162.826,332.500 172.092 L 328.500 175.128 328.184 172.564 C 327.731 168.899,319.555 168.653,318.645 172.277 C 317.895 175.265,311.242 183.000,309.422 183.000 C 308.456 183.000,308.000 181.846,308.000 179.404 C 308.000 158.977,284.159 167.476,277.091 190.423 C 272.770 204.451,261.638 210.091,265.591 196.250 C 266.258 193.912,266.675 192.000,266.517 192.000 C 266.359 192.000,267.559 188.287,269.182 183.750 C 270.806 179.213,272.382 174.713,272.684 173.750 C 273.099 172.426,274.322 172.000,277.700 172.000 C 283.158 172.000,283.226 169.660,277.782 169.196 L 274.218 168.892 275.703 163.204 C 276.520 160.075,277.612 156.725,278.130 155.758 C 279.117 153.912,277.516 153.677,270.916 154.700 M136.500 168.943 C 126.515 173.017,118.351 191.380,119.923 206.227 C 120.417 210.892,128.947 210.450,135.539 205.419 C 139.192 202.630,140.000 202.334,140.000 203.784 C 140.000 211.534,148.388 211.922,156.886 204.565 L 159.271 202.500 158.136 204.684 C 156.133 208.537,156.695 209.123,162.091 208.802 L 167.181 208.500 169.952 200.491 C 174.854 186.319,180.777 176.000,184.009 176.000 C 187.055 176.000,187.115 177.367,184.436 185.640 C 183.036 189.963,180.857 196.988,179.595 201.250 L 177.300 209.000 181.624 209.000 C 186.500 209.000,187.257 208.062,190.504 198.000 C 194.141 186.729,202.058 174.119,204.850 175.151 C 205.369 175.343,204.211 180.000,202.276 185.500 C 197.394 199.379,196.366 204.314,197.732 207.312 C 199.740 211.719,207.229 210.952,212.739 205.776 C 216.204 202.520,216.248 203.895,213.000 214.000 C 209.212 225.785,209.089 225.158,215.124 224.802 L 220.248 224.500 222.924 216.250 C 224.749 210.620,225.925 208.325,226.624 209.024 C 228.357 210.757,234.438 210.413,237.549 208.404 C 255.871 196.578,257.542 158.836,239.250 169.989 C 236.598 171.606,236.000 171.697,236.000 170.485 C 236.000 169.427,234.885 169.000,232.121 169.000 C 227.724 169.000,228.213 168.197,222.993 184.000 C 219.518 194.521,218.594 196.253,214.002 200.844 C 208.323 206.523,205.523 204.593,208.426 197.000 C 217.815 172.450,218.115 168.000,210.381 168.000 C 207.905 168.000,205.872 169.178,201.581 173.100 L 196.000 178.201 196.000 175.100 C 196.000 168.171,190.139 166.435,183.500 171.399 C 178.217 175.348,178.069 175.352,178.690 171.522 L 179.262 168.000 174.715 168.000 L 170.169 168.000 167.018 178.250 C 161.827 195.134,155.980 204.358,151.547 202.656 C 149.369 201.821,149.384 201.750,156.793 178.269 C 158.395 173.193,159.472 168.805,159.186 168.519 C 157.803 167.136,149.000 168.045,149.000 169.571 C 149.000 171.000,148.857 171.000,147.429 169.571 C 145.759 167.902,139.880 167.564,136.500 168.943 M301.800 178.260 C 302.124 184.467,301.061 185.548,298.490 181.624 C 295.301 176.758,296.095 171.492,299.908 172.217 C 301.100 172.443,301.575 173.962,301.800 178.260 M145.712 179.501 C 144.184 194.302,128.990 211.185,130.188 196.750 C 131.022 186.699,138.635 174.000,143.827 174.000 C 146.202 174.000,146.262 174.174,145.712 179.501 M242.495 176.978 C 242.855 178.615,242.908 180.753,242.614 181.728 C 242.319 182.702,241.876 184.681,241.628 186.123 C 240.257 194.117,231.259 206.659,228.718 204.118 C 226.032 201.432,232.220 182.895,237.853 176.750 C 241.044 173.269,241.688 173.301,242.495 176.978 M297.139 186.763 L 299.961 190.025 297.912 195.263 C 292.399 209.357,286.489 210.049,287.333 196.500 C 287.872 187.857,291.601 178.501,293.277 181.587 C 293.849 182.639,295.586 184.968,297.139 186.763 M170.000 249.500 C 170.000 256.389,170.284 258.000,171.500 258.000 C 172.548 258.000,173.000 256.944,173.000 254.500 L 173.000 251.000 178.000 251.000 L 183.000 251.000 183.000 254.500 C 183.000 256.944,183.452 258.000,184.500 258.000 C 185.716 258.000,186.000 256.389,186.000 249.500 C 186.000 242.611,185.716 241.000,184.500 241.000 C 183.452 241.000,183.000 242.056,183.000 244.500 L 183.000 248.000 178.000 248.000 L 173.000 248.000 173.000 244.500 C 173.000 242.056,172.548 241.000,171.500 241.000 C 170.284 241.000,170.000 242.611,170.000 249.500 M192.000 249.500 C 192.000 257.333,192.157 258.000,194.000 258.000 C 195.843 258.000,196.000 257.333,196.000 249.500 C 196.000 241.667,195.843 241.000,194.000 241.000 C 192.157 241.000,192.000 241.667,192.000 249.500 M201.000 249.427 L 201.000 258.000 207.500 258.000 C 212.611 258.000,214.000 257.679,214.000 256.500 C 214.000 255.391,212.838 255.000,209.546 255.000 L 205.091 255.000 204.796 248.260 C 204.297 236.886,201.000 237.899,201.000 249.427 M214.000 243.000 C 214.000 244.556,214.667 245.000,217.000 245.000 L 220.000 245.000 220.000 251.500 C 220.000 257.333,220.205 258.000,222.000 258.000 C 223.795 258.000,224.000 257.333,224.000 251.500 L 224.000 245.000 227.000 245.000 C 229.333 245.000,230.000 244.556,230.000 243.000 C 230.000 241.167,229.333 241.000,222.000 241.000 C 214.667 241.000,214.000 241.167,214.000 243.000 M237.894 242.107 C 232.749 244.010,231.347 252.098,235.488 255.988 C 241.337 261.484,252.000 257.473,252.000 249.778 C 252.000 243.011,245.301 239.368,237.894 242.107 M257.000 249.500 C 257.000 256.389,257.284 258.000,258.500 258.000 C 259.670 258.000,260.007 256.625,260.032 251.750 C 260.061 246.029,260.187 245.669,261.517 247.500 C 271.739 261.568,274.000 261.917,274.000 249.427 C 274.000 238.850,270.928 236.908,270.000 246.898 L 269.500 252.279 265.011 246.640 C 258.441 238.387,257.000 238.901,257.000 249.500 M126.000 250.067 C 126.000 257.562,126.136 258.092,127.916 257.527 C 128.970 257.192,130.084 257.326,130.392 257.824 C 131.002 258.813,135.213 258.604,137.005 257.497 C 140.721 255.200,139.922 247.785,135.807 246.387 C 133.229 245.512,133.355 245.510,130.250 246.452 C 128.324 247.037,128.000 246.765,128.000 244.567 C 128.000 243.155,127.550 242.000,127.000 242.000 C 126.416 242.000,126.000 245.356,126.000 250.067 M245.495 244.636 C 247.967 245.585,249.158 249.559,247.839 252.455 C 245.317 257.990,237.000 256.042,237.000 249.916 C 237.000 245.246,240.849 242.854,245.495 244.636 M143.000 246.969 C 143.000 247.502,143.869 249.640,144.931 251.719 C 147.984 257.696,148.009 261.000,145.000 261.000 C 143.900 261.000,143.000 261.450,143.000 262.000 C 143.000 264.444,148.569 262.981,149.661 260.250 C 150.266 258.738,151.934 254.912,153.368 251.750 C 155.255 247.588,155.606 246.000,154.639 246.000 C 153.905 246.000,152.492 247.800,151.500 250.000 C 149.377 254.708,148.467 254.996,147.528 251.256 C 146.507 247.188,143.000 243.868,143.000 246.969 M136.394 250.250 C 138.634 253.828,132.884 257.809,129.515 255.012 C 128.185 253.909,128.196 251.110,129.538 248.939 C 130.512 247.363,135.141 248.248,136.394 250.250 M384.750 279.662 C 385.451 279.945,386.000 281.886,386.000 284.083 C 386.000 289.490,387.717 289.026,388.157 283.500 C 388.494 279.251,388.374 279.004,386.007 279.079 C 384.628 279.122,384.063 279.385,384.750 279.662 M391.667 279.667 C 391.300 280.033,391.059 281.946,391.132 283.917 L 391.263 287.500 391.917 284.000 L 392.570 280.500 393.862 284.250 C 394.573 286.313,395.520 288.000,395.966 288.000 C 396.412 288.000,397.138 286.313,397.579 284.250 L 398.380 280.500 399.048 284.500 L 399.716 288.500 399.858 283.750 C 399.993 279.241,398.497 277.207,397.469 280.500 C 395.900 285.522,395.794 285.582,394.377 282.250 C 392.910 278.802,392.716 278.617,391.667 279.667 " stroke="none" fill="#000000" fill-rule="evenodd"></path></g></svg>