<svg id="svg" version="1.1" width="400" height="400" xmlns="http://www.w3.org/2000/svg" xmlns:xlink="http://www.w3.org/1999/xlink" style="display: block;"><g id="svgg"><path id="path0" d="M204.189 54.039 C 201.383 56.653,201.416 57.996,204.649 72.816 C 207.651 86.580,207.319 86.296,215.750 82.309 C 219.335 80.614,219.434 80.221,218.018 73.299 C 217.478 70.660,216.760 67.150,216.423 65.500 C 216.086 63.850,215.574 61.150,215.286 59.500 C 214.136 52.908,208.421 50.096,204.189 54.039 M172.655 65.829 C 170.497 68.214,170.543 72.287,172.750 74.233 C 174.257 75.561,186.578 82.236,188.000 82.494 C 188.275 82.544,190.707 83.583,193.405 84.804 C 196.102 86.025,198.387 86.906,198.482 86.762 C 199.058 85.889,201.249 74.919,200.911 74.597 C 200.685 74.381,195.921 71.909,190.324 69.102 C 179.479 63.665,175.312 62.893,172.655 65.829 M227.762 73.250 C 222.444 79.000,213.000 90.576,213.000 91.344 C 213.000 92.233,222.983 97.175,224.034 96.807 C 225.652 96.240,241.000 77.639,241.000 76.246 C 241.000 68.496,233.689 66.842,227.762 73.250 M172.397 88.415 C 161.430 93.724,160.000 94.994,160.000 99.427 C 160.000 106.381,164.701 106.342,179.739 99.262 C 193.779 92.652,193.035 93.644,188.454 87.644 C 184.159 82.019,185.769 81.942,172.397 88.415 M216.750 99.739 C 213.588 99.937,211.020 100.415,211.044 100.800 C 211.068 101.185,211.680 103.750,212.403 106.500 L 213.719 111.500 226.609 111.735 C 240.875 111.994,242.560 111.450,243.601 106.246 C 244.978 99.358,240.420 98.254,216.750 99.739 M178.337 114.708 L 175.305 127.416 177.636 129.930 C 183.280 136.017,187.353 132.528,190.550 118.868 C 191.885 113.166,193.390 107.037,193.895 105.250 L 194.813 102.000 188.092 102.000 L 181.370 102.000 178.337 114.708 M198.170 108.603 C 195.267 112.548,195.011 113.359,196.170 114.936 C 210.559 134.508,213.490 136.821,218.195 132.313 C 222.935 127.772,222.806 127.491,207.083 108.194 C 202.837 102.984,202.287 103.009,198.170 108.603 M16.327 148.591 C 15.991 149.466,16.498 153.403,17.452 157.341 C 22.411 177.790,25.671 192.995,25.198 193.469 C 24.906 193.761,19.622 194.000,13.456 194.000 C 0.660 194.000,-0.662 194.656,0.427 200.460 C 1.484 206.099,3.794 207.000,17.184 207.000 L 28.923 207.000 29.903 210.750 C 31.830 218.120,37.299 241.573,38.006 245.500 C 38.403 247.700,39.438 252.425,40.307 256.000 C 41.177 259.575,42.139 263.706,42.445 265.180 C 43.573 270.599,51.597 273.209,56.379 269.712 C 58.365 268.260,58.969 271.459,48.934 230.225 C 46.220 219.074,44.000 209.287,44.000 208.475 C 44.000 207.254,46.138 207.000,56.412 207.000 L 68.824 207.000 69.533 211.250 C 74.284 239.740,96.740 274.335,108.000 270.511 C 112.874 268.856,112.756 267.436,107.118 259.948 C 102.503 253.819,92.081 235.536,91.614 232.752 C 91.498 232.063,90.837 230.469,90.145 229.209 C 88.300 225.853,84.000 211.893,84.000 209.262 C 84.000 207.152,84.423 207.000,90.309 207.000 C 98.461 207.000,100.125 205.759,100.754 199.207 L 101.247 194.078 91.873 193.789 L 82.500 193.500 82.519 183.500 C 82.540 172.705,83.814 167.470,89.168 156.185 C 93.266 147.548,91.055 144.747,82.661 147.939 C 78.041 149.695,68.998 163.901,69.804 168.137 C 69.870 168.488,69.455 170.288,68.881 172.137 C 68.306 173.987,67.622 179.100,67.360 183.500 C 66.676 194.974,67.871 194.100,53.294 193.780 L 40.549 193.500 38.361 184.500 C 37.157 179.550,34.919 170.103,33.388 163.506 C 30.066 149.198,28.485 147.000,21.514 147.000 C 18.252 147.000,16.762 147.457,16.327 148.591 M258.542 147.686 C 248.765 150.388,241.327 169.498,245.380 181.500 C 248.498 190.732,248.372 192.000,244.341 192.000 C 230.682 192.000,223.258 200.581,222.279 217.500 C 221.712 227.305,219.839 231.000,215.436 231.000 C 210.127 231.000,206.576 222.972,201.284 199.000 C 200.166 193.937,194.871 192.181,190.457 195.408 C 188.572 196.786,188.598 197.074,191.724 209.158 L 194.917 221.500 192.908 225.670 C 187.916 236.032,177.893 232.473,173.234 218.684 C 169.280 206.982,169.344 205.723,174.289 198.197 C 188.980 175.836,186.950 148.000,170.629 148.000 C 159.725 148.000,152.141 164.732,153.809 185.113 C 155.093 200.798,154.990 201.379,150.752 202.426 C 147.575 203.211,146.660 203.039,144.752 201.299 C 126.948 185.072,104.511 194.104,104.511 217.500 C 104.511 250.618,147.456 255.378,149.902 222.532 L 150.500 214.500 154.158 214.195 C 157.576 213.910,157.864 214.108,158.528 217.195 C 163.694 241.190,183.984 251.958,196.532 237.363 C 199.146 234.323,199.630 234.384,201.491 237.983 C 205.530 245.793,217.289 245.731,224.117 237.863 C 226.266 235.388,227.197 235.507,230.076 238.629 C 237.132 246.280,249.873 245.884,258.732 237.737 L 260.964 235.685 263.070 238.362 C 268.729 245.556,282.686 245.708,287.219 238.624 C 287.737 237.816,288.579 237.904,290.219 238.939 C 301.817 246.260,311.547 245.836,318.692 237.698 L 321.680 234.295 325.365 238.115 C 332.454 245.464,341.087 245.726,348.579 238.820 L 352.978 234.765 355.905 237.899 C 363.551 246.083,377.312 245.531,383.431 236.795 C 385.099 234.413,385.796 234.602,386.256 237.561 C 386.422 238.627,386.926 240.089,387.375 240.810 C 391.098 246.779,387.785 260.331,381.696 264.044 C 376.079 267.469,362.000 265.418,362.000 261.175 C 362.000 258.917,353.406 257.140,349.582 258.607 C 344.988 260.370,350.366 270.489,357.839 274.142 C 361.716 276.038,364.098 276.416,372.000 276.388 C 395.095 276.307,404.322 262.287,398.580 236.000 C 397.800 232.425,396.211 225.225,395.049 220.000 C 393.888 214.775,392.525 208.134,392.020 205.243 C 390.392 195.918,389.283 194.546,383.086 194.192 C 376.254 193.803,375.919 194.425,378.204 203.282 C 381.518 216.134,381.164 225.552,377.234 229.073 C 368.624 236.789,363.287 230.371,359.023 207.178 C 356.751 194.815,356.196 194.000,350.044 194.000 C 343.479 194.000,343.441 194.528,348.475 215.866 C 350.507 224.480,349.773 226.931,344.394 229.483 C 336.063 233.437,332.213 228.778,328.697 210.490 C 325.211 192.359,321.382 187.724,314.807 193.675 C 313.076 195.241,312.729 195.241,309.444 193.675 C 296.180 187.350,284.904 197.988,284.190 217.500 C 283.759 229.269,283.133 231.000,279.312 231.000 C 269.025 231.000,266.753 219.326,272.598 196.500 C 280.853 164.261,274.787 143.195,258.542 147.686 M171.952 160.442 C 175.023 164.143,172.663 180.446,168.041 187.453 C 165.277 191.645,164.528 189.187,164.553 176.000 C 164.579 162.289,167.823 155.467,171.952 160.442 M264.092 163.250 C 266.496 167.040,266.266 185.109,263.721 192.417 L 262.356 196.335 259.563 188.917 C 252.925 171.285,256.464 151.228,264.092 163.250 M189.039 177.189 C 184.526 182.033,187.611 188.000,194.629 188.000 C 199.464 188.000,201.000 186.626,201.000 182.300 C 201.000 175.758,193.398 172.509,189.039 177.189 M249.411 204.398 C 258.232 208.084,258.003 226.842,249.086 230.985 C 237.854 236.204,231.178 210.109,242.337 204.606 C 246.188 202.706,245.415 202.729,249.411 204.398 M313.716 206.554 C 318.341 211.727,318.853 220.424,314.913 226.902 C 307.154 239.661,293.717 223.839,299.888 209.210 C 302.552 202.894,309.287 201.600,313.716 206.554 M127.836 208.446 C 128.954 210.341,131.758 213.085,134.067 214.542 L 138.265 217.192 137.625 223.318 C 136.032 238.552,119.790 236.118,117.416 220.289 C 115.651 208.518,122.970 200.199,127.836 208.446 M136.144 251.454 C 121.057 256.918,118.402 274.849,130.613 288.808 C 139.930 299.459,147.796 302.617,151.927 297.365 C 155.396 292.955,155.262 292.691,146.025 285.783 C 129.301 273.276,133.654 256.867,150.762 267.925 C 174.636 283.355,180.642 320.343,160.929 330.537 C 153.894 334.175,137.006 332.984,136.199 328.793 C 135.838 326.922,149.037 319.744,158.601 316.610 C 167.418 313.720,169.748 309.694,165.389 304.877 C 162.412 301.588,149.177 305.750,126.006 317.262 C 107.727 326.342,123.202 344.000,149.440 344.000 C 183.665 344.000,197.592 315.832,180.299 281.586 C 171.943 265.037,160.958 255.314,146.201 251.404 C 140.221 249.819,140.664 249.817,136.144 251.454 M290.000 281.615 C 285.635 283.161,283.844 284.708,282.130 288.414 C 278.789 295.639,278.376 296.826,278.100 300.000 C 277.863 302.725,276.230 299.061,274.455 291.818 C 272.487 283.785,271.484 282.781,265.836 283.189 C 261.470 283.504,258.465 289.065,261.189 291.789 C 261.663 292.263,262.265 293.967,262.527 295.575 C 262.788 297.184,263.743 301.327,264.647 304.782 C 266.596 312.221,265.801 314.932,260.770 317.999 C 254.932 321.558,251.640 318.469,246.004 304.140 C 238.587 285.285,236.191 282.000,229.858 282.000 C 222.362 282.000,220.031 284.255,216.419 295.000 C 214.093 301.920,213.926 301.827,211.941 292.500 C 210.360 285.068,209.563 283.997,205.628 284.010 C 201.696 284.022,192.174 288.383,191.341 290.553 C 190.341 293.161,193.731 299.303,195.864 298.746 C 199.076 297.906,200.533 300.335,202.911 310.500 C 207.602 330.549,207.997 331.458,212.185 331.806 C 217.081 332.214,218.048 330.451,220.584 316.500 C 222.772 304.465,224.681 300.000,227.637 300.000 C 230.225 300.000,230.677 300.775,235.511 313.500 C 243.158 333.627,253.223 338.653,264.763 328.104 L 268.962 324.266 270.731 327.883 C 274.190 334.956,280.238 333.015,282.034 324.254 C 282.683 321.089,283.450 317.825,283.739 317.000 C 284.028 316.175,284.400 314.481,284.566 313.235 C 285.567 305.700,288.086 300.000,290.413 300.000 C 293.123 300.000,296.000 303.741,296.000 307.265 C 296.000 308.549,296.395 310.027,296.877 310.550 C 297.359 311.072,298.486 313.750,299.380 316.500 C 305.007 333.812,320.916 337.790,334.250 325.218 C 340.996 318.859,336.337 311.087,329.016 316.488 C 319.968 323.163,315.650 320.908,310.501 306.815 C 302.577 285.129,297.544 278.943,290.000 281.615 M324.571 282.571 C 322.485 284.658,322.575 288.434,324.750 290.079 C 326.239 291.206,326.313 291.194,325.250 290.002 C 321.174 285.431,327.431 279.174,332.002 283.250 C 333.194 284.313,333.206 284.239,332.079 282.750 C 330.434 280.575,326.658 280.485,324.571 282.571 M326.667 283.667 C 325.285 285.048,326.029 287.775,327.750 287.639 C 329.603 287.492,330.969 286.160,330.969 284.500 C 330.969 283.950,330.577 284.120,330.096 284.878 C 329.609 285.648,328.685 285.924,328.005 285.503 C 327.068 284.924,327.100 284.552,328.143 283.890 C 328.889 283.417,329.012 283.024,328.417 283.015 C 327.821 283.007,327.033 283.300,326.667 283.667 M329.500 290.536 C 327.850 291.292,327.201 291.930,328.059 291.955 C 328.916 291.980,330.491 291.339,331.559 290.532 C 333.929 288.739,333.423 288.740,329.500 290.536 " stroke="none" fill="#000000" fill-rule="evenodd"></path></g></svg>