<?xml version="1.0" standalone="no"?>
<!DOCTYPE svg PUBLIC "-//W3C//DTD SVG 20010904//EN"
 "http://www.w3.org/TR/2001/REC-SVG-20010904/DTD/svg10.dtd">
<svg version="1.0" xmlns="http://www.w3.org/2000/svg"
 width="300.000000pt" height="300.000000pt" viewBox="0 0 300.000000 300.000000"
 preserveAspectRatio="xMidYMid meet">
<metadata>
Created by potrace 1.10, written by Peter Selinger 2001-2011
</metadata>
<g transform="translate(0.000000,300.000000) scale(0.100000,-0.100000)"
fill="#aaf0d1" stroke="none">
<path d="M1521 2582 c-10 -18 22 -198 37 -214 13 -12 82 23 82 42 0 34 -30
163 -41 177 -17 19 -67 16 -78 -5z"/>
<path d="M1290 2500 c-21 -40 -2 -60 97 -106 52 -24 96 -44 98 -44 1 0 6 12 9
28 4 15 9 35 12 44 4 13 -13 26 -75 58 -90 45 -125 50 -141 20z"/>
<path d="M1669 2405 c-35 -41 -65 -80 -67 -85 -2 -5 15 -18 37 -29 l40 -21 58
66 c32 36 61 71 65 78 12 21 -15 61 -43 64 -22 3 -37 -10 -90 -73z"/>
<path d="M1288 2334 c-82 -40 -88 -46 -88 -74 0 -22 6 -33 24 -41 20 -10 38
-4 120 34 53 25 96 49 96 52 0 9 -54 75 -60 74 -3 0 -44 -21 -92 -45z"/>
<path d="M1634 2253 l-51 -4 10 -44 10 -45 97 0 c81 0 100 3 113 18 22 24 21
45 -1 65 -19 17 -51 19 -178 10z"/>
<path d="M1339 2144 c-26 -105 -22 -127 24 -132 34 -4 50 22 72 118 9 41 19
83 22 93 4 14 -3 17 -45 17 l-50 0 -23 -96z"/>
<path d="M1486 2185 l-27 -35 61 -75 c51 -62 66 -75 90 -75 27 0 50 22 50 48
0 13 -130 172 -140 172 -4 0 -20 -16 -34 -35z"/>
<path d="M124 1885 c-3 -8 10 -82 30 -165 20 -83 36 -155 36 -160 0 -5 -39
-11 -86 -12 -101 -3 -121 -17 -94 -66 15 -26 19 -27 112 -30 90 -3 96 -4 101
-25 3 -12 27 -114 53 -227 25 -113 51 -211 56 -217 15 -19 87 -17 94 2 4 8 -5
63 -20 123 -48 199 -76 322 -76 332 0 7 33 10 91 8 l91 -3 25 -85 c28 -99 107
-268 153 -325 48 -60 80 -78 118 -64 18 6 32 15 32 20 0 6 -17 33 -39 62 -74
101 -153 269 -167 356 l-6 40 58 3 c56 3 59 4 67 35 16 55 6 63 -73 63 l-70 0
0 45 c0 66 18 142 53 218 36 81 31 94 -32 77 -30 -8 -48 -20 -62 -43 -29 -47
-58 -150 -65 -228 l-7 -69 -98 0 c-55 0 -99 2 -99 4 0 1 -16 72 -35 157 -39
166 -52 189 -106 189 -17 0 -32 -6 -35 -15z"/>
<path d="M1943 1893 c-35 -7 -79 -57 -93 -107 -13 -46 -10 -173 5 -208 6 -15
2 -18 -24 -18 -64 0 -128 -43 -150 -102 -6 -16 -11 -54 -12 -85 -2 -72 -19
-103 -59 -103 -16 0 -32 5 -36 11 -3 6 -21 65 -40 132 -38 138 -53 157 -99
123 -19 -14 -19 -16 4 -110 21 -90 22 -98 7 -121 -23 -35 -50 -47 -80 -35 -34
13 -57 51 -77 129 -16 65 -16 66 7 96 72 95 103 242 69 330 -19 50 -38 65 -85
65 -42 0 -94 -52 -111 -111 -7 -24 -13 -99 -13 -169 l-1 -125 -26 -3 c-18 -2
-43 8 -73 29 -60 43 -144 51 -194 20 -118 -75 -101 -282 28 -349 35 -18 55
-22 89 -18 93 12 141 70 141 170 0 42 4 56 14 56 8 0 21 3 29 6 11 4 19 -6 27
-33 21 -63 56 -126 88 -157 54 -51 143 -45 195 12 17 19 18 19 51 -14 45 -45
87 -46 139 -3 l38 31 22 -20 c58 -52 132 -58 194 -13 l39 28 32 -28 c41 -37
95 -39 144 -5 l35 23 28 -20 c18 -14 49 -22 86 -25 56 -4 60 -3 95 32 l36 36
33 -29 c19 -16 43 -32 55 -36 36 -11 85 4 115 35 l29 30 25 -24 c37 -33 65
-46 103 -46 35 0 108 42 108 62 0 9 3 9 11 1 7 -7 14 -46 17 -88 4 -64 2 -79
-14 -96 -50 -55 -117 -60 -173 -13 -23 19 -39 24 -68 22 -53 -4 -57 -36 -11
-82 66 -66 202 -71 290 -11 81 55 87 140 29 396 -22 94 -45 176 -53 180 -19
12 -62 11 -75 -2 -7 -7 -8 -20 -4 -33 5 -11 14 -54 21 -94 14 -84 5 -121 -36
-142 -56 -31 -92 19 -119 165 -19 102 -26 115 -65 115 -46 0 -51 -17 -30 -100
27 -102 26 -145 -2 -164 -29 -21 -61 -20 -87 2 -17 13 -28 45 -45 129 -13 62
-29 119 -36 128 -15 18 -51 20 -67 4 -8 -8 -21 -8 -47 1 -46 15 -88 6 -128
-28 -43 -36 -58 -79 -58 -166 0 -62 -3 -77 -17 -84 -24 -13 -59 2 -74 30 -27
51 -27 95 2 215 61 249 22 398 -98 376z m-649 -99 c19 -50 -8 -187 -42 -208
-26 -16 -27 157 -2 204 13 24 35 26 44 4z m690 -29 c14 -30 16 -48 8 -119 -13
-117 -24 -132 -46 -64 -19 57 -32 177 -23 202 11 29 44 18 61 -19z m-88 -316
c10 -11 19 -42 22 -74 4 -50 2 -57 -26 -85 -37 -37 -44 -37 -82 -2 -38 34 -48
84 -26 135 23 56 74 68 112 26z m449 8 c55 -47 39 -178 -23 -194 -40 -10 -82
43 -82 103 0 68 23 105 72 113 4 0 19 -9 33 -22z m-1386 -20 c7 -13 26 -31 42
-41 72 -43 26 -163 -55 -142 -37 9 -66 60 -66 116 0 77 51 119 79 67z"/>
<path d="M1420 1670 c-23 -23 -24 -33 -10 -61 12 -22 68 -27 88 -7 19 19 14
55 -10 72 -30 21 -44 20 -68 -4z"/>
<path d="M1004 1106 c-69 -31 -95 -102 -70 -190 12 -41 28 -64 70 -104 76 -72
128 -82 142 -26 6 23 3 31 -17 43 -48 32 -87 72 -104 107 -15 32 -15 37 -1 60
22 32 52 31 107 -4 88 -56 158 -177 166 -286 4 -50 0 -69 -19 -106 -40 -78
-128 -114 -218 -90 -66 18 -50 39 74 92 128 55 133 59 118 92 -20 44 -43 41
-185 -19 -151 -65 -177 -84 -177 -132 0 -40 25 -67 89 -97 68 -31 215 -30 289
3 150 67 181 235 83 436 -82 166 -243 269 -347 221z"/>
<path d="M1667 870 c-16 -13 -32 -42 -43 -78 l-17 -57 -16 65 c-15 58 -20 65
-43 68 -26 3 -101 -28 -112 -47 -11 -17 13 -61 33 -61 29 0 37 -17 61 -120 26
-111 35 -130 58 -130 33 0 42 17 69 126 24 93 31 109 49 112 18 3 25 -6 39
-45 36 -99 78 -174 108 -190 40 -20 89 -10 132 28 l35 31 10 -27 c8 -22 15
-26 42 -23 31 3 34 6 46 63 33 144 41 166 65 163 17 -2 27 -16 42 -63 51 -151
69 -170 160 -170 56 0 67 4 102 31 42 34 51 60 30 88 -13 17 -15 17 -51 -8
-74 -50 -99 -34 -145 92 -51 139 -76 172 -126 172 -46 0 -72 -24 -91 -85 -10
-30 -20 -55 -24 -55 -3 0 -12 24 -19 53 -17 65 -26 77 -61 77 -46 0 -51 -17
-30 -100 27 -104 26 -134 -6 -159 -15 -12 -31 -21 -36 -21 -23 0 -57 53 -92
142 -53 137 -106 177 -169 128z"/>
<path d="M2421 854 c0 -11 3 -14 6 -6 3 7 2 16 -1 19 -3 4 -6 -2 -5 -13z"/>
<path d="M2450 850 c0 -7 3 -10 7 -7 3 4 3 10 0 14 -4 3 -7 0 -7 -7z"/>
<path d="M2470 850 c0 -7 3 -10 7 -7 3 4 3 10 0 14 -4 3 -7 0 -7 -7z"/>
</g>
</svg>
